{
  "accessors": [
    {
      "bufferView": 2,
      "componentType": 5126,
      "count": 65534,
      "max": [
        8.882810592651367,
        -0.9130456447601318,
        42.0441780090332
      ],
      "min": [
        -8.697582244873047,
        -17.768951416015625,
        20.76340103149414
      ],
      "type": "VEC3"
    },
    {
      "bufferView": 2,
      "byteOffset": 786408,
      "componentType": 5126,
      "count": 65534,
      "max": [
        0.9999961853027344,
        1.0,
        0.9999653697013855
      ],
      "min": [
        -0.9999779462814331,
        -0.9999923706054688,
        -0.9993302226066589
      ],
      "type": "VEC3"
    },
    {
      "bufferView": 1,
      "componentType": 5126,
      "count": 65534,
      "max": [
        0.9994786977767944,
        0.9877928495407104
      ],
      "min": [
        0.00048828125,
        0.1822052150964737
      ],
      "type": "VEC2"
    },
    {
      "bufferView": 0,
      "componentType": 5125,
      "count": 241848,
      "type": "SCALAR"
    },
    {
      "bufferView": 2,
      "byteOffset": 1572816,
      "componentType": 5126,
      "count": 65532,
      "max": [
        1.4996246099472046,
        -0.5363336205482483,
        34.015811920166016
      ],
      "min": [
        -32.024452209472656,
        -25.281694412231445,
        -7.900506019592285
      ],
      "type": "VEC3"
    },
    {
      "bufferView": 2,
      "byteOffset": 2359200,
      "componentType": 5126,
      "count": 65532,
      "max": [
        0.9999163150787354,
        0.9999075531959534,
        0.9999852776527405
      ],
      "min": [
        -0.9999764561653137,
        -0.9999032616615295,
        -0.9999996423721313
      ],
      "type": "VEC3"
    },
    {
      "bufferView": 1,
      "byteOffset": 524272,
      "componentType": 5126,
      "count": 65532,
      "max": [
        0.9994958639144897,
        0.9741209745407104
      ],
      "min": [
        0.00048828125,
        0.11963304132223129
      ],
      "type": "VEC2"
    },
    {
      "bufferView": 0,
      "byteOffset": 967392,
      "componentType": 5125,
      "count": 208674,
      "type": "SCALAR"
    },
    {
      "bufferView": 2,
      "byteOffset": 3145584,
      "componentType": 5126,
      "count": 65533,
      "max": [
        -1.8058240413665771,
        -0.5047495365142822,
        23.83542251586914
      ],
      "min": [
        -20.43500328063965,
        -20.14482307434082,
        -7.919519424438477
      ],
      "type": "VEC3"
    },
    {
      "bufferView": 2,
      "byteOffset": 3931980,
      "componentType": 5126,
      "count": 65533,
      "max": [
        0.9999406337738037,
        0.9999551773071289,
        0.9999903440475464
      ],
      "min": [
        -0.9999831318855286,
        -0.9999865889549255,
        -0.9999923706054688
      ],
      "type": "VEC3"
    },
    {
      "bufferView": 1,
      "byteOffset": 1048528,
      "componentType": 5126,
      "count": 65533,
      "max": [
        0.9994996786117554,
        0.7924803495407104
      ],
      "min": [
        0.00048828125,
        0.08861174434423447
      ],
      "type": "VEC2"
    },
    {
      "bufferView": 0,
      "byteOffset": 1802088,
      "componentType": 5125,
      "count": 213429,
      "type": "SCALAR"
    },
    {
      "bufferView": 2,
      "byteOffset": 4718376,
      "componentType": 5126,
      "count": 65533,
      "max": [
        11.980141639709473,
        -0.9147360920906067,
        23.92493438720703
      ],
      "min": [
        -12.046361923217773,
        -19.93833351135254,
        0.034380752593278885
      ],
      "type": "VEC3"
    },
    {
      "bufferView": 2,
      "byteOffset": 5504772,
      "componentType": 5126,
      "count": 65533,
      "max": [
        0.9999709725379944,
        0.9999973177909851,
        0.9999673962593079
      ],
      "min": [
        -0.9999987483024597,
        -0.9999968409538269,
        -0.9998572468757629
      ],
      "type": "VEC3"
    },
    {
      "bufferView": 1,
      "byteOffset": 1572792,
      "componentType": 5126,
      "count": 65533,
      "max": [
        0.9994774460792542,
        0.7905272245407104
      ],
      "min": [
        0.00048828125,
        0.0004906250396743417
      ],
      "type": "VEC2"
    },
    {
      "bufferView": 0,
      "byteOffset": 2655804,
      "componentType": 5125,
      "count": 221610,
      "type": "SCALAR"
    },
    {
      "bufferView": 2,
      "byteOffset": 6291168,
      "componentType": 5126,
      "count": 65532,
      "max": [
        30.69379234313965,
        -0.9556010961532593,
        22.7998046875
      ],
      "min": [
        -4.947983741760254,
        -25.311145782470703,
        -8.389429092407227
      ],
      "type": "VEC3"
    },
    {
      "bufferView": 2,
      "byteOffset": 7077552,
      "componentType": 5126,
      "count": 65532,
      "max": [
        0.9999709725379944,
        0.999964714050293,
        0.9999850988388062
      ],
      "min": [
        -0.9997758865356445,
        -0.9999871253967285,
        -0.9999663829803467
      ],
      "type": "VEC3"
    },
    {
      "bufferView": 1,
      "byteOffset": 2097056,
      "componentType": 5126,
      "count": 65532,
      "max": [
        0.9994456171989441,
        0.5190428495407104
      ],
      "min": [
        0.00048828125,
        0.0004889561096206307
      ],
      "type": "VEC2"
    },
    {
      "bufferView": 0,
      "byteOffset": 3542244,
      "componentType": 5125,
      "count": 232509,
      "type": "SCALAR"
    },
    {
      "bufferView": 2,
      "byteOffset": 7863936,
      "componentType": 5126,
      "count": 65532,
      "max": [
        24.827404022216797,
        -0.9554502367973328,
        23.36733055114746
      ],
      "min": [
        -4.742209434509277,
        -21.363277435302734,
        -8.356668472290039
      ],
      "type": "VEC3"
    },
    {
      "bufferView": 2,
      "byteOffset": 8650320,
      "componentType": 5126,
      "count": 65532,
      "max": [
        0.9999713897705078,
        0.9999589323997498,
        0.9999850988388062
      ],
      "min": [
        -0.9999992251396179,
        -0.9999194741249084,
        -0.999973475933075
      ],
      "type": "VEC3"
    },
    {
      "bufferView": 1,
      "byteOffset": 2621312,
      "componentType": 5126,
      "count": 65532,
      "max": [
        0.9994974136352539,
        0.5115642547607422
      ],
      "min": [
        0.00048828125,
        0.000526685849763453
      ],
      "type": "VEC2"
    },
    {
      "bufferView": 0,
      "byteOffset": 4472280,
      "componentType": 5125,
      "count": 205506,
      "type": "SCALAR"
    },
    {
      "bufferView": 2,
      "byteOffset": 9436704,
      "componentType": 5126,
      "count": 64437,
      "max": [
        12.040702819824219,
        -0.5720204710960388,
        22.20450210571289
      ],
      "min": [
        -12.000950813293457,
        -18.811935424804688,
        -1.883724570274353
      ],
      "type": "VEC3"
    },
    {
      "bufferView": 2,
      "byteOffset": 10209948,
      "componentType": 5126,
      "count": 64437,
      "max": [
        0.9999679923057556,
        0.9999909996986389,
        0.999937891960144
      ],
      "min": [
        -0.9999999403953552,
        -0.9999851584434509,
        -0.999825119972229
      ],
      "type": "VEC3"
    },
    {
      "bufferView": 1,
      "byteOffset": 3145568,
      "componentType": 5126,
      "count": 64437,
      "max": [
        0.99949049949646,
        0.7846678495407104
      ],
      "min": [
        0.00048828125,
        0.0004922343650832772
      ],
      "type": "VEC2"
    },
    {
      "bufferView": 0,
      "byteOffset": 5294304,
      "componentType": 5125,
      "count": 176502,
      "type": "SCALAR"
    }
  ],
  "asset": {
    "extras": {
      "author": "teachingtechie (https://sketchfab.com/teachingtechie)",
      "license": "CC-BY-4.0 (http://creativecommons.org/licenses/by/4.0/)",
      "source": "https://sketchfab.com/3d-models/cow-skull-83f4ee24948a4d338aad0afe1a3f41ed",
      "title": "Cow Skull"
    },
    "generator": "Sketchfab-15.12.0",
    "version": "2.0"
  },
  "bufferViews": [
    {
      "buffer": 0,
      "byteLength": 6000312,
      "name": "floatBufferViews",
      "target": 34963
    },
    {
      "buffer": 0,
      "byteLength": 3661064,
      "byteOffset": 6000312,
      "byteStride": 8,
      "name": "floatBufferViews",
      "target": 34962
    },
    {
      "buffer": 0,
      "byteLength": 10983192,
      "byteOffset": 9661376,
      "byteStride": 12,
      "name": "floatBufferViews",
      "target": 34962
    }
  ],
  "buffers": [
    {
      "byteLength": 20644568,
      "uri": "scene.bin"
    }
  ],
  "images": [
    {
      "uri": "textures/Cow_Skull_u1_v1_baseColor.png"
    }
  ],
  "materials": [
    {
      "doubleSided": true,
      "name": "Cow_Skull_u1_v1",
      "pbrMetallicRoughness": {
        "baseColorTexture": {
          "index": 0
        },
        "metallicFactor": 0.0
      }
    }
  ],
  "meshes": [
    {
      "name": "Object_0",
      "primitives": [
        {
          "attributes": {
            "NORMAL": 1,
            "POSITION": 0,
            "TEXCOORD_0": 2
          },
          "indices": 3,
          "material": 0,
          "mode": 4
        }
      ]
    },
    {
      "name": "Object_1",
      "primitives": [
        {
          "attributes": {
            "NORMAL": 5,
            "POSITION": 4,
            "TEXCOORD_0": 6
          },
          "indices": 7,
          "material": 0,
          "mode": 4
        }
      ]
    },
    {
      "name": "Object_2",
      "primitives": [
        {
          "attributes": {
            "NORMAL": 9,
            "POSITION": 8,
            "TEXCOORD_0": 10
          },
          "indices": 11,
          "material": 0,
          "mode": 4
        }
      ]
    },
    {
      "name": "Object_3",
      "primitives": [
        {
          "attributes": {
            "NORMAL": 13,
            "POSITION": 12,
            "TEXCOORD_0": 14
          },
          "indices": 15,
          "material": 0,
          "mode": 4
        }
      ]
    },
    {
      "name": "Object_4",
      "primitives": [
        {
          "attributes": {
            "NORMAL": 17,
            "POSITION": 16,
            "TEXCOORD_0": 18
          },
          "indices": 19,
          "material": 0,
          "mode": 4
        }
      ]
    },
    {
      "name": "Object_5",
      "primitives": [
        {
          "attributes": {
            "NORMAL": 21,
            "POSITION": 20,
            "TEXCOORD_0": 22
          },
          "indices": 23,
          "material": 0,
          "mode": 4
        }
      ]
    },
    {
      "name": "Object_6",
      "primitives": [
        {
          "attributes": {
            "NORMAL": 25,
            "POSITION": 24,
            "TEXCOORD_0": 26
          },
          "indices": 27,
          "material": 0,
          "mode": 4
        }
      ]
    }
  ],
  "nodes": [
    {
      "children": [
        1
      ],
      "matrix": [
        -1.0,
        2.4598400594570403e-16,
        -1.2106304425415788e-16,
        0.0,
        -2.220446049250313e-16,
        -0.9856774210929871,
        -0.16864168643951438,
        0.0,
        -1.6081226229577292e-16,
        -0.16864168643951438,
        0.9856774210929871,
        0.0,
        0.0,
        0.0,
        0.0,
        1.0
      ],
      "name": "Sketchfab_model"
    },
    {
      "children": [
        2,
        3,
        4,
        5,
        6,
        7,
        8
      ],
      "name": "Cow_Skull.obj.cleaner.materialmerger.gles"
    },
    {
      "mesh": 0,
      "name": "Object_2"
    },
    {
      "mesh": 1,
      "name": "Object_3"
    },
    {
      "mesh": 2,
      "name": "Object_4"
    },
    {
      "mesh": 3,
      "name": "Object_5"
    },
    {
      "mesh": 4,
      "name": "Object_6"
    },
    {
      "mesh": 5,
      "name": "Object_7"
    },
    {
      "mesh": 6,
      "name": "Object_8"
    }
  ],
  "samplers": [
    {
      "magFilter": 9729,
      "minFilter": 9987,
      "wrapS": 10497,
      "wrapT": 10497
    }
  ],
  "scene": 0,
  "scenes": [
    {
      "name": "Sketchfab_Scene",
      "nodes": [
        0
      ]
    }
  ],
  "textures": [
    {
      "sampler": 0,
      "source": 0
    }
  ]
}
